<svg id="Layer_2" data-name="Layer 2" xmlns="http://www.w3.org/2000/svg" viewBox="0 0 452.23 108.42">
  <defs>
    <style>
      .cls-1 {
        fill: #477ca6;
      }
    </style>
  </defs>
  <g id="Layer_1-2" data-name="Layer 1">
    <g>
      <path class="cls-1" d="M141.68,76.74h-16.71v-.48c1.49-.18,2.45-.66,2.45-4.71v-34.19c0-2.92-.48-4.48-2.45-4.71v-.48h16.23c15.81,0,23.63,11.93,23.63,22.38,0,15.87-13.9,22.2-23.15,22.2ZM140.67,35.21h-7.28v35.56c0,2.57,1.43,2.92,5.01,2.92,12.65,0,20.23-6.92,20.23-18.26s-6.5-20.23-17.96-20.23Z"></path>
      <path class="cls-1" d="M229.21,35.92l-15.87,42.55-13.43-35.74-13.43,35.74-15.99-42.31c-.9-2.45-2.45-3.52-4-3.52v-.48h12.77v.48c-1.91.12-3.16,1.13-2.27,3.52l10.92,29.48,13.43-35.68,13.37,36.04,10.98-30.13c.66-1.73-.12-2.98-1.49-3.22v-.48h8.59v.48c-2.15.3-3.04,1.79-3.58,3.28Z"></path>
      <path class="cls-1" d="M271.75,59.55v15.57c-.06.06-4.18,2.39-13.96,2.39-13.19,0-24.35-8.59-24.35-23.93,0-8.83,5.79-22.02,24.46-22.02,5.25,0,7.7,1.07,9.91,1.07.6,0,1.01-.24,1.25-.42h.36l1.85,8.29h-.72c-1.97-2.98-6.33-5.79-12.35-5.79-10.44,0-18.38,7.34-18.38,18.98,0,12.95,7.76,20.65,17.9,20.65,5.01,0,6.86-.78,7.82-1.19v-13.49c0-1.67-.72-3.4-2.51-3.52v-.54h10.92v.66c-1.49.18-2.21,1.25-2.21,3.28Z"></path>
      <path class="cls-1" d="M335.17,37.23v40.7l-32.22-38.73v32.46c0,2.27.6,4.18,2.57,4.59v.48h-8.47v-.48c1.49-.3,2.75-.95,2.75-4.48v-34.07c0-3.82-.72-4.59-2.63-5.07v-.48h7.7l27.09,33v-27.69c0-3.88-.66-4.36-2.57-4.83v-.48h8.35v.48c-1.55.3-2.57,1.55-2.57,4.59Z"></path>
      <path class="cls-1" d="M370.73,76.74h-26.32v-.48c1.85-.24,2.39-1.55,2.39-4.71v-34.19c0-2.92-.72-4.48-2.68-4.71v-.48h25.78l-.84,5.37-.6-.06c-.18-1.49-.42-2.27-8.41-2.27h-7.28v17.24h6.86c8.23,0,8.53-.3,9.13-1.97h.66v7.58h-.66c-.54-2.27-2.09-2.39-9.19-2.39h-6.8v15.1c0,3.34,1.13,2.92,6.68,2.92,9.13,0,11.1-.72,13.49-3.7l.6.3-2.8,6.44Z"></path>
      <path class="cls-1" d="M400.14,76.74v-.48c2.27-.3,2.45-2.21.95-4.95l-7.64-14.14-9.49,16.05c-.78,1.37-.18,2.68,1.13,3.04v.48h-9.49v-.48c2.15-.6,3.52-1.85,5.43-5.01l10.38-16.89-8.77-15.04c-1.97-3.4-3.22-6.09-6.44-6.68v-.48h13.43v.48c-1.67.36-2.33,1.97-1.31,3.88l7.28,13.49,7.94-13.67c1.37-2.33.24-3.34-1.37-3.7v-.48h9.85v.48c-1.73.48-2.68,1.13-3.94,3.16l-10.44,17.01,11.93,20.59c.9,1.55,2.03,2.75,3.58,2.86v.48h-13.01Z"></path>
      <path class="cls-1" d="M450.97,37.83l-.6-.06c-.36-2.68-1.31-2.57-8.47-2.57h-6.33v36.16c0,4.18.6,4.59,2.86,4.89v.48h-11.52v-.48c2.57-.3,2.63-1.43,2.63-4.71v-36.34h-5.67c-7.76,0-8.47.42-8.53,2.45l-.6.18-1.37-5.67h38.85l-1.25,5.67Z"></path>
    </g>
    <g>
      <path class="cls-1" d="M24.24,64.65H0v-.69c2.16-.26,3.55-.95,3.55-6.84V7.53C3.55,3.29,2.86,1.04,0,.69v-.69h23.54c22.94,0,34.27,17.31,34.27,32.46,0,23.02-20.17,32.2-33.58,32.2ZM22.76,4.41h-10.56v51.59c0,3.72,2.08,4.24,7.27,4.24,18.35,0,29.34-10.04,29.34-26.49S39.38,4.41,22.76,4.41Z"></path>
      <path class="cls-1" d="M43.71,99.34v-35.91c-1.49,1-3.02,1.94-4.59,2.81v33.27c0,5.11-1.81,6.05-3.97,6.49v.69h12.29v-.69c-2.86-.6-3.72-3.39-3.72-6.67ZM82.05,42.04v.69c2.78.69,3.72,1.38,3.72,7.01v40.16l-30.08-36.64c-1.96,2.09-4.05,4.06-6.26,5.89l41.02,49.27v-59.02c0-4.42,1.47-6.24,3.71-6.67v-.69h-12.12Z"></path>
    </g>
  </g>
</svg>